<svg xmlns="http://www.w3.org/2000/svg" width="100" height="100" viewBox="0 0 100 100" fill="none"><path d="M9.78612 59.4396L66.8537 24.2795C68.1318 23.4962 69.7681 23.5712 70.9649 24.4962C76.3867 28.6714 81.2305 32.905 84.4624 36.4635C84.4624 36.4635 87.2466 39.3136 88.4515 41.1221C90.3971 43.5888 91.3333 46.814 91.3333 49.9475C91.3333 53.4643 90.3076 56.7895 88.2642 59.448C87.8002 59.923 86.0336 62.0148 84.3647 63.7232C74.6283 74.3571 49.2124 91.9246 35.8451 97.2499C33.8994 98.1082 28.7055 99.9 26.0109 100C23.414 100 20.9066 99.4333 18.4969 98.1916C15.5336 96.4832 13.2134 93.833 11.9109 90.6912C11.0724 88.5078 9.77798 81.9574 9.77798 81.7658C8.93947 77.0905 8.31262 70.5235 8.00327 62.8565C7.94628 61.4814 8.63826 60.148 9.78612 59.4396" fill="#9C9AFD"></path><path opacity="0.4" d="M13.6026 40.5021C11.0871 42.0605 7.92025 40.0687 8.04237 37.0769C8.34358 30.0599 8.8646 23.8762 9.49958 19.276C9.59727 19.176 10.8917 11.0173 12.3815 8.25879C14.9784 3.13353 20.0746 4.02775e-05 25.5534 4.02775e-05H26.0093C29.5424 0.0917115 37.0565 3.2252 37.0565 3.41688C40.842 4.99195 45.7835 7.65876 51.0995 10.8672C53.4929 12.3173 53.5499 15.8758 51.1565 17.3509L13.6026 40.5021Z" fill="#9C9AFD"></path></svg>